<?xml version="1.0" standalone="no"?>
<!DOCTYPE svg PUBLIC "-//W3C//DTD SVG 20010904//EN"
 "http://www.w3.org/TR/2001/REC-SVG-20010904/DTD/svg10.dtd">
<svg version="1.0" xmlns="http://www.w3.org/2000/svg"
 width="501.000000pt" height="501.000000pt" viewBox="0 0 501.000000 501.000000"
 preserveAspectRatio="xMidYMid meet">
<metadata>
Created by potrace 1.11, written by Peter Selinger 2001-2013
</metadata>
<g transform="translate(0.000000,501.000000) scale(0.100000,-0.100000)"
fill="#000000" stroke="none">
<path d="M979 3213 c-2 -10 -2 -6 6 -83 3 -35 8 -67 10 -70 1 -3 6 -34 10 -70
3 -36 8 -76 10 -90 2 -14 7 -50 10 -80 4 -30 9 -56 10 -58 1 -2 -19 -39 -45
-82 -77 -128 -112 -236 -116 -355 -6 -159 33 -253 152 -370 52 -52 95 -83 163
-118 l92 -47 1415 0 c778 0 1414 3 1413 8 0 4 -197 163 -437 355 -240 191
-457 365 -482 387 -25 22 -69 57 -97 77 -29 21 -53 41 -53 44 0 6 25 39 93
123 17 21 37 45 43 54 8 11 31 16 75 18 82 2 79 2 79 18 0 11 -13 14 -55 12
-48 -3 -53 -1 -45 14 5 9 16 22 24 30 9 7 16 18 16 26 0 28 -18 21 -48 -18
-25 -32 -32 -37 -33 -22 -3 69 -14 104 -34 104 -9 0 -14 -3 -11 -8 2 -4 7 -40
11 -79 5 -61 4 -74 -12 -91 -18 -19 -28 -31 -96 -114 l-37 -47 -83 52 c-45 28
-83 52 -85 53 -1 1 19 52 45 114 l48 113 62 21 c34 12 65 24 69 28 15 16 -28
19 -70 5 -49 -17 -50 -16 -20 42 13 25 10 41 -6 41 -5 0 -18 -19 -28 -42 l-20
-43 -23 52 c-18 40 -27 50 -38 44 -12 -8 -10 -19 12 -65 15 -31 27 -63 27 -70
0 -14 -18 -61 -49 -131 -10 -22 -22 -50 -25 -62 -4 -13 -11 -23 -16 -23 -5 0
-49 20 -98 44 -118 59 -362 154 -362 141 0 -3 -12 0 -27 6 -41 15 -198 47
-278 56 -171 19 -516 6 -595 -23 -32 -12 -101 -16 -113 -6 -6 5 -66 38 -132
72 -66 35 -144 76 -172 92 -29 16 -54 25 -54 21z"/>
</g>
</svg>
